<?xml version="1.0" standalone="no"?>
<!DOCTYPE svg PUBLIC "-//W3C//DTD SVG 20010904//EN"
 "http://www.w3.org/TR/2001/REC-SVG-20010904/DTD/svg10.dtd">
<svg version="1.0" xmlns="http://www.w3.org/2000/svg"
 width="376.000000pt" height="376.000000pt" viewBox="0 0 376.000000 376.000000"
 preserveAspectRatio="xMidYMid meet">
<metadata>
Created by potrace 1.14, written by Peter Selinger 2001-2017
</metadata>
<g transform="translate(0.000000,376.000000) scale(0.100000,-0.100000)"
fill="#000000" stroke="none">
<path d="M51 2743 c78 -81 89 -96 97 -125 4 -16 7 -354 6 -752 -1 -786 2 -737
-52 -795 -9 -10 -35 -37 -57 -59 l-39 -42 368 0 369 0 -85 64 c-136 103 -124
59 -122 452 1 187 2 341 3 344 0 3 90 5 199 6 240 1 308 10 429 58 75 29 162
86 202 131 79 90 111 184 107 311 -2 72 -7 92 -39 157 -64 129 -175 211 -357
265 -85 25 -86 25 -580 29 l-495 4 46 -48z m759 -64 c182 -49 284 -197 273
-394 -8 -148 -85 -265 -208 -318 -60 -26 -79 -29 -215 -34 l-126 -5 0 379 c0
313 2 379 14 383 24 10 215 2 262 -11z"/>
<path d="M2430 1881 l0 -911 408 1 c417 1 484 5 592 44 193 68 311 229 327
445 10 140 -31 262 -117 347 -64 64 -122 94 -250 130 -8 2 15 14 52 26 114 39
192 121 235 246 18 54 21 83 19 156 -4 105 -14 141 -58 215 -45 75 -131 138
-238 175 l-85 29 -442 4 -443 4 0 -911z m744 603 c86 -29 138 -116 131 -217
-6 -95 -50 -154 -138 -183 -44 -15 -100 -17 -309 -15 l-48 1 0 215 0 216 161
-2 c111 0 174 -5 203 -15z m9 -719 c20 -4 40 -11 43 -16 3 -5 10 -7 15 -4 16
11 104 -88 117 -131 32 -109 -1 -226 -79 -279 -62 -44 -125 -55 -306 -55
l-163 0 0 248 0 249 168 -2 c92 -1 184 -5 205 -10z"/>
</g>
</svg>
